<?xml version="1.0" encoding="utf-8"?>
<!-- Generator: Adobe Illustrator 26.2.1, SVG Export Plug-In . SVG Version: 6.00 Build 0)  -->
<svg version="1.1" id="Layer_1" xmlns:svg="http://www.w3.org/2000/svg"
	 xmlns="http://www.w3.org/2000/svg" xmlns:xlink="http://www.w3.org/1999/xlink" x="0px" y="0px" width="1250px" height="152px"
	 viewBox="0 0 1250 152" style="enable-background:new 0 0 1250 152;" xml:space="preserve">
<style type="text/css">
	.st0{fill:#FFFFFF;stroke:#000000;}
	.st1{fill:#FFFFFF;fill-opacity:0.5;stroke:#000000;}
	.st2{stroke:#000000;stroke-width:1.46;}
</style>
<path id="keyw" class="st0" d="M3.9,1.5h18.2c1.3,0,2.4,2.1,2.4,4.8v139.4c0,2.7-1.1,4.8-2.4,4.8H3.9c-1.3,0-2.4-2.1-2.4-4.8V6.3
	C1.5,3.6,2.6,1.5,3.9,1.5z"/>
<g>
	<path id="keyw_00000178191620052976649860000003436577662161014459_" class="st0" d="M27.9,1.5h18.2c1.3,0,2.4,2.1,2.4,4.8v139.4
		c0,2.7-1.1,4.8-2.4,4.8H27.9c-1.3,0-2.4-2.1-2.4-4.8V6.3C25.5,3.6,26.6,1.5,27.9,1.5z"/>
</g>
<g>
	<path id="keyw_00000100383537118654911340000006059967539448616113_" class="st0" d="M51.9,1.5h18.2c1.3,0,2.4,2.1,2.4,4.8v139.4
		c0,2.7-1.1,4.8-2.4,4.8H51.9c-1.3,0-2.4-2.1-2.4-4.8V6.3C49.5,3.6,50.6,1.5,51.9,1.5z"/>
</g>
<g>
	<path id="keyw_00000077321714887741680850000000539516945459371398_" class="st0" d="M75.9,1.5h18.2c1.3,0,2.4,2.1,2.4,4.8v139.4
		c0,2.7-1.1,4.8-2.4,4.8H75.9c-1.3,0-2.4-2.1-2.4-4.8V6.3C73.5,3.6,74.6,1.5,75.9,1.5z"/>
</g>
<g>
	<path id="keyw_00000040566568798377486540000013219703125965577890_" class="st0" d="M99.9,1.5h18.2c1.3,0,2.4,2.1,2.4,4.8v139.4
		c0,2.7-1.1,4.8-2.4,4.8H99.9c-1.3,0-2.4-2.1-2.4-4.8V6.3C97.5,3.6,98.6,1.5,99.9,1.5z"/>
</g>
<g>
	<path id="keyw_00000060743715280736507860000013269845679674259858_" class="st0" d="M123.9,1.5h18.2c1.3,0,2.4,2.1,2.4,4.8v139.4
		c0,2.7-1.1,4.8-2.4,4.8h-18.2c-1.3,0-2.4-2.1-2.4-4.8V6.3C121.5,3.6,122.6,1.5,123.9,1.5z"/>
</g>
<g>
	<path id="keyw_00000002352322833684205330000018215162929157032613_" class="st0" d="M147.9,1.5h18.2c1.3,0,2.4,2.1,2.4,4.8v139.4
		c0,2.7-1.1,4.8-2.4,4.8h-18.2c-1.3,0-2.4-2.1-2.4-4.8V6.3C145.5,3.6,146.6,1.5,147.9,1.5z"/>
</g>
<g>
	<path id="keyw_00000152946689891411803970000002348300345053894787_" class="st0" d="M171.9,1.5h18.2c1.3,0,2.4,2.1,2.4,4.8v139.4
		c0,2.7-1.1,4.8-2.4,4.8h-18.2c-1.3,0-2.4-2.1-2.4-4.8V6.3C169.5,3.6,170.6,1.5,171.9,1.5z"/>
</g>
<g>
	<path id="keyw_00000165940232320062523130000015832128797204046989_" class="st0" d="M195.9,1.5h18.2c1.3,0,2.4,2.1,2.4,4.8v139.4
		c0,2.7-1.1,4.8-2.4,4.8h-18.2c-1.3,0-2.4-2.1-2.4-4.8V6.3C193.5,3.6,194.6,1.5,195.9,1.5z"/>
</g>
<g>
	<path id="keyw_00000034780776384627954900000003056282344662923653_" class="st0" d="M219.9,1.5h18.2c1.3,0,2.4,2.1,2.4,4.8v139.4
		c0,2.7-1.1,4.8-2.4,4.8h-18.2c-1.3,0-2.4-2.1-2.4-4.8V6.3C217.5,3.6,218.6,1.5,219.9,1.5z"/>
</g>
<g>
	<path id="keyw_00000067952425887206658280000001981927155566372995_" class="st0" d="M243.9,1.5h18.2c1.3,0,2.4,2.1,2.4,4.8v139.4
		c0,2.7-1.1,4.8-2.4,4.8h-18.2c-1.3,0-2.4-2.1-2.4-4.8V6.3C241.5,3.6,242.6,1.5,243.9,1.5z"/>
</g>
<g>
	<path id="keyw_00000058577602326121771360000018008435925241464221_" class="st0" d="M267.9,1.5h18.2c1.3,0,2.4,2.1,2.4,4.8v139.4
		c0,2.7-1.1,4.8-2.4,4.8h-18.2c-1.3,0-2.4-2.1-2.4-4.8V6.3C265.5,3.6,266.6,1.5,267.9,1.5z"/>
</g>
<g>
	<path id="keyw_00000016784913899166550000000017623227254019506836_" class="st0" d="M291.9,1.5h18.2c1.3,0,2.4,2.1,2.4,4.8v139.4
		c0,2.7-1.1,4.8-2.4,4.8h-18.2c-1.3,0-2.4-2.1-2.4-4.8V6.3C289.5,3.6,290.6,1.5,291.9,1.5z"/>
</g>
<g>
	<path id="keyw_00000152952291691931293140000002305544290793924249_" class="st0" d="M315.9,1.5h18.2c1.3,0,2.4,2.1,2.4,4.8v139.4
		c0,2.7-1.1,4.8-2.4,4.8h-18.2c-1.3,0-2.4-2.1-2.4-4.8V6.3C313.5,3.6,314.6,1.5,315.9,1.5z"/>
</g>
<g>
	<path id="keyw_00000074437390836403455330000016798009854083828926_" class="st0" d="M339.9,1.5h18.2c1.3,0,2.4,2.1,2.4,4.8v139.4
		c0,2.7-1.1,4.8-2.4,4.8h-18.2c-1.3,0-2.4-2.1-2.4-4.8V6.3C337.5,3.6,338.6,1.5,339.9,1.5z"/>
</g>
<g>
	<path id="keyw_00000018919426755026198470000007872917709185983896_" class="st0" d="M363.9,1.5h18.2c1.3,0,2.4,2.1,2.4,4.8v139.4
		c0,2.7-1.1,4.8-2.4,4.8h-18.2c-1.3,0-2.4-2.1-2.4-4.8V6.3C361.5,3.6,362.6,1.5,363.9,1.5z"/>
</g>
<g>
	<path id="keyw_00000037692369232733997740000001856421011155661953_" class="st0" d="M387.9,1.5h18.2c1.3,0,2.4,2.1,2.4,4.8v139.4
		c0,2.7-1.1,4.8-2.4,4.8h-18.2c-1.3,0-2.4-2.1-2.4-4.8V6.3C385.5,3.6,386.6,1.5,387.9,1.5z"/>
</g>
<g>
	<path id="keyw_00000119810510281243060880000001605481717831035044_" class="st0" d="M411.9,1.5h18.2c1.3,0,2.4,2.1,2.4,4.8v139.4
		c0,2.7-1.1,4.8-2.4,4.8h-18.2c-1.3,0-2.4-2.1-2.4-4.8V6.3C409.5,3.6,410.6,1.5,411.9,1.5z"/>
</g>
<g>
	<path id="keyw_00000029746206213625680850000002217296884155064705_" class="st0" d="M435.9,1.5h18.2c1.3,0,2.4,2.1,2.4,4.8v139.4
		c0,2.7-1.1,4.8-2.4,4.8h-18.2c-1.3,0-2.4-2.1-2.4-4.8V6.3C433.5,3.6,434.6,1.5,435.9,1.5z"/>
</g>
<g>
	<path id="keyw_00000162345194688984274140000016805144373910685312_" class="st0" d="M459.9,1.5h18.2c1.3,0,2.4,2.1,2.4,4.8v139.4
		c0,2.7-1.1,4.8-2.4,4.8h-18.2c-1.3,0-2.4-2.1-2.4-4.8V6.3C457.5,3.6,458.6,1.5,459.9,1.5z"/>
</g>
<g>
	<path id="keyw_00000163794539916918502850000006197032065229208742_" class="st0" d="M483.9,1.5h18.2c1.3,0,2.4,2.1,2.4,4.8v139.4
		c0,2.7-1.1,4.8-2.4,4.8h-18.2c-1.3,0-2.4-2.1-2.4-4.8V6.3C481.5,3.6,482.6,1.5,483.9,1.5z"/>
</g>
<g>
	<path id="keyw_00000170958788492300375290000017679296767494002347_" class="st0" d="M507.9,1.5h18.2c1.3,0,2.4,2.1,2.4,4.8v139.4
		c0,2.7-1.1,4.8-2.4,4.8h-18.2c-1.3,0-2.4-2.1-2.4-4.8V6.3C505.5,3.6,506.6,1.5,507.9,1.5z"/>
</g>
<g>
	<path id="keyw_00000013892462763758069090000015371750356950742917_" class="st0" d="M531.9,1.5h18.2c1.3,0,2.4,2.1,2.4,4.8v139.4
		c0,2.7-1.1,4.8-2.4,4.8h-18.2c-1.3,0-2.4-2.1-2.4-4.8V6.3C529.5,3.6,530.6,1.5,531.9,1.5z"/>
</g>
<g>
	<path id="keyw_00000130636436361465883550000009187443516476383156_" class="st0" d="M555.9,1.5h18.2c1.3,0,2.4,2.1,2.4,4.8v139.4
		c0,2.7-1.1,4.8-2.4,4.8h-18.2c-1.3,0-2.4-2.1-2.4-4.8V6.3C553.5,3.6,554.6,1.5,555.9,1.5z"/>
</g>
<g>
	<path id="keyw_00000148645202929245801680000000114615378383550889_" class="st0" d="M579.9,1.5h18.2c1.3,0,2.4,2.1,2.4,4.8v139.4
		c0,2.7-1.1,4.8-2.4,4.8h-18.2c-1.3,0-2.4-2.1-2.4-4.8V6.3C577.5,3.6,578.6,1.5,579.9,1.5z"/>
</g>
<g>
	<path id="keyw_00000077305703267884539110000013846384685353920428_" class="st0" d="M603.9,1.5h18.2c1.3,0,2.4,2.1,2.4,4.8v139.4
		c0,2.7-1.1,4.8-2.4,4.8h-18.2c-1.3,0-2.4-2.1-2.4-4.8V6.3C601.5,3.6,602.6,1.5,603.9,1.5z"/>
</g>
<g>
	<path id="keyw_00000183959082688203510960000002781484391886285233_" class="st0" d="M627.9,1.5h18.2c1.3,0,2.4,2.1,2.4,4.8v139.4
		c0,2.7-1.1,4.8-2.4,4.8h-18.2c-1.3,0-2.4-2.1-2.4-4.8V6.3C625.5,3.6,626.6,1.5,627.9,1.5z"/>
</g>
<g>
	<path id="keyw_00000087373274077089890770000002729634661417317259_" class="st0" d="M651.9,1.5h18.2c1.3,0,2.4,2.1,2.4,4.8v139.4
		c0,2.7-1.1,4.8-2.4,4.8h-18.2c-1.3,0-2.4-2.1-2.4-4.8V6.3C649.5,3.6,650.6,1.5,651.9,1.5z"/>
</g>
<g>
	<path id="keyw_00000152964242649822115340000005241955711198460557_" class="st0" d="M675.9,1.5h18.2c1.3,0,2.4,2.1,2.4,4.8v139.4
		c0,2.7-1.1,4.8-2.4,4.8h-18.2c-1.3,0-2.4-2.1-2.4-4.8V6.3C673.5,3.6,674.6,1.5,675.9,1.5z"/>
</g>
<g>
	<path id="keyw_00000104687466935112351700000012578839254220139167_" class="st0" d="M699.9,1.5h18.2c1.3,0,2.4,2.1,2.4,4.8v139.4
		c0,2.7-1.1,4.8-2.4,4.8h-18.2c-1.3,0-2.4-2.1-2.4-4.8V6.3C697.5,3.6,698.6,1.5,699.9,1.5z"/>
</g>
<g>
	<path id="keyw_00000093893741358402662740000009131983499413921672_" class="st0" d="M723.9,1.5h18.2c1.3,0,2.4,2.1,2.4,4.8v139.4
		c0,2.7-1.1,4.8-2.4,4.8h-18.2c-1.3,0-2.4-2.1-2.4-4.8V6.3C721.5,3.6,722.6,1.5,723.9,1.5z"/>
</g>
<g>
	<path id="keyw_00000107588137568437891900000013319436824562459528_" class="st0" d="M747.9,1.5h18.2c1.3,0,2.4,2.1,2.4,4.8v139.4
		c0,2.7-1.1,4.8-2.4,4.8h-18.2c-1.3,0-2.4-2.1-2.4-4.8V6.3C745.5,3.6,746.6,1.5,747.9,1.5z"/>
</g>
<g>
	<path id="keyw_00000000905340015586787950000013360900056130994823_" class="st0" d="M771.9,1.5h18.2c1.3,0,2.4,2.1,2.4,4.8v139.4
		c0,2.7-1.1,4.8-2.4,4.8h-18.2c-1.3,0-2.4-2.1-2.4-4.8V6.3C769.5,3.6,770.6,1.5,771.9,1.5z"/>
</g>
<g>
	<path id="keyw_00000106110558978341374130000012273256834742932666_" class="st0" d="M795.9,1.5h18.2c1.3,0,2.4,2.1,2.4,4.8v139.4
		c0,2.7-1.1,4.8-2.4,4.8h-18.2c-1.3,0-2.4-2.1-2.4-4.8V6.3C793.5,3.6,794.6,1.5,795.9,1.5z"/>
</g>
<g>
	<path id="keyw_00000003064383194142750650000005703605511329905334_" class="st0" d="M819.9,1.5h18.2c1.3,0,2.4,2.1,2.4,4.8v139.4
		c0,2.7-1.1,4.8-2.4,4.8h-18.2c-1.3,0-2.4-2.1-2.4-4.8V6.3C817.5,3.6,818.6,1.5,819.9,1.5z"/>
</g>
<g>
	<path id="keyw_00000183247755487751260680000014883416947955245474_" class="st0" d="M843.9,1.5h18.2c1.3,0,2.4,2.1,2.4,4.8v139.4
		c0,2.7-1.1,4.8-2.4,4.8h-18.2c-1.3,0-2.4-2.1-2.4-4.8V6.3C841.5,3.6,842.6,1.5,843.9,1.5z"/>
</g>
<g>
	<path id="keyw_00000045587674159623639170000016523271497029231017_" class="st0" d="M867.9,1.5h18.2c1.3,0,2.4,2.1,2.4,4.8v139.4
		c0,2.7-1.1,4.8-2.4,4.8h-18.2c-1.3,0-2.4-2.1-2.4-4.8V6.3C865.5,3.6,866.6,1.5,867.9,1.5z"/>
</g>
<g>
	<path id="keyw_00000103257899184229707500000005536475531014786236_" class="st0" d="M891.9,1.5h18.2c1.3,0,2.4,2.1,2.4,4.8v139.4
		c0,2.7-1.1,4.8-2.4,4.8h-18.2c-1.3,0-2.4-2.1-2.4-4.8V6.3C889.5,3.6,890.6,1.5,891.9,1.5z"/>
</g>
<g>
	<path id="keyw_00000049213145733658183620000000012648000102545341_" class="st0" d="M915.9,1.5h18.2c1.3,0,2.4,2.1,2.4,4.8v139.4
		c0,2.7-1.1,4.8-2.4,4.8h-18.2c-1.3,0-2.4-2.1-2.4-4.8V6.3C913.5,3.6,914.6,1.5,915.9,1.5z"/>
</g>
<g>
	<path id="keyw_00000000214423880480384380000017496750871084466616_" class="st0" d="M939.9,1.5h18.2c1.3,0,2.4,2.1,2.4,4.8v139.4
		c0,2.7-1.1,4.8-2.4,4.8h-18.2c-1.3,0-2.4-2.1-2.4-4.8V6.3C937.5,3.6,938.6,1.5,939.9,1.5z"/>
</g>
<g>
	<path id="keyw_00000075143228271283426800000009672835220703529857_" class="st0" d="M963.9,1.5h18.2c1.3,0,2.4,2.1,2.4,4.8v139.4
		c0,2.7-1.1,4.8-2.4,4.8h-18.2c-1.3,0-2.4-2.1-2.4-4.8V6.3C961.5,3.6,962.6,1.5,963.9,1.5z"/>
</g>
<g>
	<path id="keyw_00000112614361321291917900000002848885731586990996_" class="st0" d="M987.9,1.5h18.2c1.3,0,2.4,2.1,2.4,4.8v139.4
		c0,2.7-1.1,4.8-2.4,4.8h-18.2c-1.3,0-2.4-2.1-2.4-4.8V6.3C985.5,3.6,986.6,1.5,987.9,1.5z"/>
</g>
<g>
	<path id="keyw_00000093164805945477314860000003511326545021285295_" class="st0" d="M1011.9,1.5h18.2c1.3,0,2.4,2.1,2.4,4.8v139.4
		c0,2.7-1.1,4.8-2.4,4.8h-18.2c-1.3,0-2.4-2.1-2.4-4.8V6.3C1009.5,3.6,1010.6,1.5,1011.9,1.5z"/>
</g>
<g>
	<path id="keyw_00000018195675546608744750000003065804064539703456_" class="st0" d="M1035.9,1.5h18.2c1.3,0,2.4,2.1,2.4,4.8v139.4
		c0,2.7-1.1,4.8-2.4,4.8h-18.2c-1.3,0-2.4-2.1-2.4-4.8V6.3C1033.5,3.6,1034.6,1.5,1035.9,1.5z"/>
</g>
<g>
	<path id="keyw_00000168112212562693874540000014465577735596776581_" class="st0" d="M1059.9,1.5h18.2c1.3,0,2.4,2.1,2.4,4.8v139.4
		c0,2.7-1.1,4.8-2.4,4.8h-18.2c-1.3,0-2.4-2.1-2.4-4.8V6.3C1057.5,3.6,1058.6,1.5,1059.9,1.5z"/>
</g>
<g>
	<path id="keyw_00000029033524624421531700000002670887109288959664_" class="st0" d="M1083.9,1.5h18.2c1.3,0,2.4,2.1,2.4,4.8v139.4
		c0,2.7-1.1,4.8-2.4,4.8h-18.2c-1.3,0-2.4-2.1-2.4-4.8V6.3C1081.5,3.6,1082.6,1.5,1083.9,1.5z"/>
</g>
<g>
	<path id="keyw_00000151540474325701431180000017915949418547981964_" class="st0" d="M1107.9,1.5h18.2c1.3,0,2.4,2.1,2.4,4.8v139.4
		c0,2.7-1.1,4.8-2.4,4.8h-18.2c-1.3,0-2.4-2.1-2.4-4.8V6.3C1105.5,3.6,1106.6,1.5,1107.9,1.5z"/>
</g>
<g>
	<path id="keyw_00000021112012349547270930000012227465497033479824_" class="st0" d="M1131.9,1.5h18.2c1.3,0,2.4,2.1,2.4,4.8v139.4
		c0,2.7-1.1,4.8-2.4,4.8h-18.2c-1.3,0-2.4-2.1-2.4-4.8V6.3C1129.5,3.6,1130.6,1.5,1131.9,1.5z"/>
</g>
<g>
	<path id="keyw_00000057845983417731216940000011695986883137314480_" class="st0" d="M1155.9,1.5h18.2c1.3,0,2.4,2.1,2.4,4.8v139.4
		c0,2.7-1.1,4.8-2.4,4.8h-18.2c-1.3,0-2.4-2.1-2.4-4.8V6.3C1153.5,3.6,1154.6,1.5,1155.9,1.5z"/>
</g>
<g>
	<path id="keyw_00000147941592257950769880000009096980069286577800_" class="st0" d="M1179.9,1.5h18.2c1.3,0,2.4,2.1,2.4,4.8v139.4
		c0,2.7-1.1,4.8-2.4,4.8h-18.2c-1.3,0-2.4-2.1-2.4-4.8V6.3C1177.5,3.6,1178.6,1.5,1179.9,1.5z"/>
</g>
<g>
	<path id="keyw_00000018195748833781288960000000409637183873582471_" class="st0" d="M1203.9,1.5h18.2c1.3,0,2.4,2.1,2.4,4.8v139.4
		c0,2.7-1.1,4.8-2.4,4.8h-18.2c-1.3,0-2.4-2.1-2.4-4.8V6.3C1201.5,3.6,1202.6,1.5,1203.9,1.5z"/>
</g>
<g>
	<path id="keyw_00000113312252010684163650000006706971479532977842_" class="st0" d="M1227.9,1.5h18.2c1.3,0,2.4,2.1,2.4,4.8v139.4
		c0,2.7-1.1,4.8-2.4,4.8h-18.2c-1.3,0-2.4-2.1-2.4-4.8V6.3C1225.5,3.6,1226.6,1.5,1227.9,1.5z"/>
</g>
<circle class="st1" cx="565" cy="139" r="4"/>
<path id="keyb" class="st2" d="M21.8,1.8h7c0.6,0,1,0.4,1,1v97c0,0.6-0.4,1-1,1h-7c-0.6,0-1-0.4-1-1v-97C20.8,2.2,21.2,1.8,21.8,1.8
	z"/>
<g>
	<path id="keyb_00000126321094800561465000000002138092224473956792_" class="st2" d="M69.8,1.8h7c0.6,0,1,0.4,1,1v97
		c0,0.6-0.4,1-1,1h-7c-0.6,0-1-0.4-1-1v-97C68.8,2.2,69.2,1.8,69.8,1.8z"/>
</g>
<g>
	<path id="keyb_00000031887209632956025080000000262020247743043249_" class="st2" d="M93.8,1.8h7c0.6,0,1,0.4,1,1v97
		c0,0.6-0.4,1-1,1h-7c-0.6,0-1-0.4-1-1v-97C92.8,2.2,93.2,1.8,93.8,1.8z"/>
</g>
<g>
	<path id="keyb_00000124857781193945167460000016121229634658532794_" class="st2" d="M141.8,1.8h7c0.6,0,1,0.4,1,1v97
		c0,0.6-0.4,1-1,1h-7c-0.6,0-1-0.4-1-1v-97C140.8,2.2,141.2,1.8,141.8,1.8z"/>
</g>
<g>
	<path id="keyb_00000051356659544096956750000006679567940589711783_" class="st2" d="M165.8,1.8h7c0.6,0,1,0.4,1,1v97
		c0,0.6-0.4,1-1,1h-7c-0.6,0-1-0.4-1-1v-97C164.8,2.2,165.2,1.8,165.8,1.8z"/>
</g>
<g>
	<path id="keyb_00000026854892557719205410000001182154361143888262_" class="st2" d="M189.8,1.8h7c0.6,0,1,0.4,1,1v97
		c0,0.6-0.4,1-1,1h-7c-0.6,0-1-0.4-1-1v-97C188.8,2.2,189.2,1.8,189.8,1.8z"/>
</g>
<g>
	<path id="keyb_00000082364453142776023190000014931246833841837244_" class="st2" d="M237.8,1.8h7c0.6,0,1,0.4,1,1v97
		c0,0.6-0.4,1-1,1h-7c-0.6,0-1-0.4-1-1v-97C236.8,2.2,237.2,1.8,237.8,1.8z"/>
</g>
<g>
	<path id="keyb_00000027594718869521876990000000037374332555690890_" class="st2" d="M261.8,1.8h7c0.6,0,1,0.4,1,1v97
		c0,0.6-0.4,1-1,1h-7c-0.6,0-1-0.4-1-1v-97C260.8,2.2,261.2,1.8,261.8,1.8z"/>
</g>
<g>
	<path id="keyb_00000088813417542694192700000018036254411241432736_" class="st2" d="M309.8,1.8h7c0.6,0,1,0.4,1,1v97
		c0,0.6-0.4,1-1,1h-7c-0.6,0-1-0.4-1-1v-97C308.8,2.2,309.2,1.8,309.8,1.8z"/>
</g>
<g>
	<path id="keyb_00000170996094981819829550000012769479268167527343_" class="st2" d="M333.8,1.8h7c0.6,0,1,0.4,1,1v97
		c0,0.6-0.4,1-1,1h-7c-0.6,0-1-0.4-1-1v-97C332.8,2.2,333.2,1.8,333.8,1.8z"/>
</g>
<g>
	<path id="keyb_00000155122870687207371710000018296719389444673154_" class="st2" d="M357.8,1.8h7c0.6,0,1,0.4,1,1v97
		c0,0.6-0.4,1-1,1h-7c-0.6,0-1-0.4-1-1v-97C356.8,2.2,357.2,1.8,357.8,1.8z"/>
</g>
<g>
	<path id="keyb_00000021803006479268712990000003520960905031175095_" class="st2" d="M405.8,1.8h7c0.6,0,1,0.4,1,1v97
		c0,0.6-0.4,1-1,1h-7c-0.6,0-1-0.4-1-1v-97C404.8,2.2,405.2,1.8,405.8,1.8z"/>
</g>
<g>
	<path id="keyb_00000178172691066262133380000001897030232291044797_" class="st2" d="M429.8,1.8h7c0.6,0,1,0.4,1,1v97
		c0,0.6-0.4,1-1,1h-7c-0.6,0-1-0.4-1-1v-97C428.8,2.2,429.2,1.8,429.8,1.8z"/>
</g>
<g>
	<path id="keyb_00000013887177130872702280000005932509515536205462_" class="st2" d="M477.8,1.8h7c0.6,0,1,0.4,1,1v97
		c0,0.6-0.4,1-1,1h-7c-0.6,0-1-0.4-1-1v-97C476.8,2.2,477.2,1.8,477.8,1.8z"/>
</g>
<g>
	<path id="keyb_00000054237340643949163770000011133325793149824939_" class="st2" d="M501.8,1.8h7c0.6,0,1,0.4,1,1v97
		c0,0.6-0.4,1-1,1h-7c-0.6,0-1-0.4-1-1v-97C500.8,2.2,501.2,1.8,501.8,1.8z"/>
</g>
<g>
	<path id="keyb_00000041992191243187607110000012694112750108642721_" class="st2" d="M525.8,1.8h7c0.6,0,1,0.4,1,1v97
		c0,0.6-0.4,1-1,1h-7c-0.6,0-1-0.4-1-1v-97C524.8,2.2,525.2,1.8,525.8,1.8z"/>
</g>
<g>
	<path id="keyb_00000090982867055846502990000000382040327088917931_" class="st2" d="M573.8,1.8h7c0.6,0,1,0.4,1,1v97
		c0,0.6-0.4,1-1,1h-7c-0.6,0-1-0.4-1-1v-97C572.8,2.2,573.2,1.8,573.8,1.8z"/>
</g>
<g>
	<path id="keyb_00000116953493505410231400000000427974170725527183_" class="st2" d="M597.8,1.8h7c0.6,0,1,0.4,1,1v97
		c0,0.6-0.4,1-1,1h-7c-0.6,0-1-0.4-1-1v-97C596.8,2.2,597.2,1.8,597.8,1.8z"/>
</g>
<g>
	<path id="keyb_00000091713762937610220790000016993986622878992277_" class="st2" d="M645.8,1.8h7c0.6,0,1,0.4,1,1v97
		c0,0.6-0.4,1-1,1h-7c-0.6,0-1-0.4-1-1v-97C644.8,2.2,645.2,1.8,645.8,1.8z"/>
</g>
<g>
	<path id="keyb_00000080180643514260103690000014407597343268887947_" class="st2" d="M669.8,1.8h7c0.6,0,1,0.4,1,1v97
		c0,0.6-0.4,1-1,1h-7c-0.6,0-1-0.4-1-1v-97C668.8,2.2,669.2,1.8,669.8,1.8z"/>
</g>
<g>
	<path id="keyb_00000062879717575644403760000018222179362210889396_" class="st2" d="M693.8,1.8h7c0.6,0,1,0.4,1,1v97
		c0,0.6-0.4,1-1,1h-7c-0.6,0-1-0.4-1-1v-97C692.8,2.2,693.2,1.8,693.8,1.8z"/>
</g>
<g>
	<path id="keyb_00000178893785013303235480000015552146283556795035_" class="st2" d="M741.8,1.8h7c0.6,0,1,0.4,1,1v97
		c0,0.6-0.4,1-1,1h-7c-0.6,0-1-0.4-1-1v-97C740.8,2.2,741.2,1.8,741.8,1.8z"/>
</g>
<g>
	<path id="keyb_00000087385240107632384480000008267559194073033873_" class="st2" d="M765.8,1.8h7c0.6,0,1,0.4,1,1v97
		c0,0.6-0.4,1-1,1h-7c-0.6,0-1-0.4-1-1v-97C764.8,2.2,765.2,1.8,765.8,1.8z"/>
</g>
<g>
	<path id="keyb_00000107577074796463029620000011438741635021208202_" class="st2" d="M813.8,1.8h7c0.6,0,1,0.4,1,1v97
		c0,0.6-0.4,1-1,1h-7c-0.6,0-1-0.4-1-1v-97C812.8,2.2,813.2,1.8,813.8,1.8z"/>
</g>
<g>
	<path id="keyb_00000039114493110720822390000003312004814874303423_" class="st2" d="M837.8,1.8h7c0.6,0,1,0.4,1,1v97
		c0,0.6-0.4,1-1,1h-7c-0.6,0-1-0.4-1-1v-97C836.8,2.2,837.2,1.8,837.8,1.8z"/>
</g>
<g>
	<path id="keyb_00000087411727744840680050000011126612210782454152_" class="st2" d="M861.8,1.8h7c0.6,0,1,0.4,1,1v97
		c0,0.6-0.4,1-1,1h-7c-0.6,0-1-0.4-1-1v-97C860.8,2.2,861.2,1.8,861.8,1.8z"/>
</g>
<g>
	<path id="keyb_00000018200188854241205110000013030227114731371693_" class="st2" d="M909.8,1.8h7c0.6,0,1,0.4,1,1v97
		c0,0.6-0.4,1-1,1h-7c-0.6,0-1-0.4-1-1v-97C908.8,2.2,909.2,1.8,909.8,1.8z"/>
</g>
<g>
	<path id="keyb_00000034059645054393287260000011633068189963880351_" class="st2" d="M933.8,1.8h7c0.6,0,1,0.4,1,1v97
		c0,0.6-0.4,1-1,1h-7c-0.6,0-1-0.4-1-1v-97C932.8,2.2,933.2,1.8,933.8,1.8z"/>
</g>
<g>
	<path id="keyb_00000062904857481973179770000001906433541281961365_" class="st2" d="M981.8,1.8h7c0.6,0,1,0.4,1,1v97
		c0,0.6-0.4,1-1,1h-7c-0.6,0-1-0.4-1-1v-97C980.8,2.2,981.2,1.8,981.8,1.8z"/>
</g>
<g>
	<path id="keyb_00000176023940500220684210000009721216384192980636_" class="st2" d="M1005.8,1.8h7c0.6,0,1,0.4,1,1v97
		c0,0.6-0.4,1-1,1h-7c-0.6,0-1-0.4-1-1v-97C1004.8,2.2,1005.2,1.8,1005.8,1.8z"/>
</g>
<g>
	<path id="keyb_00000111157991030211882510000012945881430478613166_" class="st2" d="M1029.8,1.8h7c0.6,0,1,0.4,1,1v97
		c0,0.6-0.4,1-1,1h-7c-0.6,0-1-0.4-1-1v-97C1028.8,2.2,1029.2,1.8,1029.8,1.8z"/>
</g>
<g>
	<path id="keyb_00000060019231018797622990000004299980101333504390_" class="st2" d="M1077.8,1.8h7c0.6,0,1,0.4,1,1v97
		c0,0.6-0.4,1-1,1h-7c-0.6,0-1-0.4-1-1v-97C1076.8,2.2,1077.2,1.8,1077.8,1.8z"/>
</g>
<g>
	<path id="keyb_00000093171963726178088610000001324704151913203618_" class="st2" d="M1101.8,1.8h7c0.6,0,1,0.4,1,1v97
		c0,0.6-0.4,1-1,1h-7c-0.6,0-1-0.4-1-1v-97C1100.8,2.2,1101.2,1.8,1101.8,1.8z"/>
</g>
<g>
	<path id="keyb_00000170245337060523123290000005969940230462159035_" class="st2" d="M1149.8,1.8h7c0.6,0,1,0.4,1,1v97
		c0,0.6-0.4,1-1,1h-7c-0.6,0-1-0.4-1-1v-97C1148.8,2.2,1149.2,1.8,1149.8,1.8z"/>
</g>
<g>
	<path id="keyb_00000083074205874081792530000006901334819938281361_" class="st2" d="M1173.8,1.8h7c0.6,0,1,0.4,1,1v97
		c0,0.6-0.4,1-1,1h-7c-0.6,0-1-0.4-1-1v-97C1172.8,2.2,1173.2,1.8,1173.8,1.8z"/>
</g>
<g>
	<path id="keyb_00000058585892940003136590000002869144215024913315_" class="st2" d="M1197.8,1.8h7c0.6,0,1,0.4,1,1v97
		c0,0.6-0.4,1-1,1h-7c-0.6,0-1-0.4-1-1v-97C1196.8,2.2,1197.2,1.8,1197.8,1.8z"/>
</g>
</svg>
