<?xml version="1.0" encoding="utf-8"?>
<!-- Generator: Adobe Illustrator 26.2.1, SVG Export Plug-In . SVG Version: 6.00 Build 0)  -->
<svg version="1.2" baseProfile="tiny" id="Layer_1" xmlns="http://www.w3.org/2000/svg" xmlns:xlink="http://www.w3.org/1999/xlink"
	 x="0px" y="0px" width="1250px" height="152px" viewBox="0 0 1250 152" overflow="visible" xml:space="preserve">
<g>
	<g>
		<path fill="#FFFFFF" stroke="#000000" d="M3.9,1.5h18.2c1.3,0,2.4,2.1,2.4,4.8v139.4c0,2.7-1.1,4.8-2.4,4.8H3.9
			c-1.3,0-2.4-2.1-2.4-4.8V6.3C1.5,3.6,2.6,1.5,3.9,1.5z"/>
		<path fill="#FFFFFF" stroke="#000000" d="M27.9,1.5h18.2c1.3,0,2.4,2.1,2.4,4.8v139.4c0,2.7-1.1,4.8-2.4,4.8H27.9
			c-1.3,0-2.4-2.1-2.4-4.8V6.3C25.5,3.6,26.6,1.5,27.9,1.5z"/>
		<path fill="#FFFFFF" stroke="#000000" d="M51.9,1.5h18.2c1.3,0,2.4,2.1,2.4,4.8v139.4c0,2.7-1.1,4.8-2.4,4.8H51.9
			c-1.3,0-2.4-2.1-2.4-4.8V6.3C49.5,3.6,50.6,1.5,51.9,1.5z"/>
		<path fill="#FFFFFF" stroke="#000000" d="M75.9,1.5h18.2c1.3,0,2.4,2.1,2.4,4.8v139.4c0,2.7-1.1,4.8-2.4,4.8H75.9
			c-1.3,0-2.4-2.1-2.4-4.8V6.3C73.5,3.6,74.6,1.5,75.9,1.5z"/>
		<path fill="#FFFFFF" stroke="#000000" d="M99.9,1.5h18.2c1.3,0,2.4,2.1,2.4,4.8v139.4c0,2.7-1.1,4.8-2.4,4.8H99.9
			c-1.3,0-2.4-2.1-2.4-4.8V6.3C97.5,3.6,98.6,1.5,99.9,1.5z"/>
		<path fill="#FFFFFF" stroke="#000000" d="M123.9,1.5h18.2c1.3,0,2.4,2.1,2.4,4.8v139.4c0,2.7-1.1,4.8-2.4,4.8h-18.2
			c-1.3,0-2.4-2.1-2.4-4.8V6.3C121.5,3.6,122.6,1.5,123.9,1.5z"/>
		<path fill="#FFFFFF" stroke="#000000" d="M147.9,1.5h18.2c1.3,0,2.4,2.1,2.4,4.8v139.4c0,2.7-1.1,4.8-2.4,4.8h-18.2
			c-1.3,0-2.4-2.1-2.4-4.8V6.3C145.5,3.6,146.6,1.5,147.9,1.5z"/>
		<path fill="#FFFFFF" stroke="#000000" d="M171.9,1.5h18.2c1.3,0,2.4,2.1,2.4,4.8v139.4c0,2.7-1.1,4.8-2.4,4.8h-18.2
			c-1.3,0-2.4-2.1-2.4-4.8V6.3C169.5,3.6,170.6,1.5,171.9,1.5z"/>
		<path fill="#FFFFFF" stroke="#000000" d="M195.9,1.5h18.2c1.3,0,2.4,2.1,2.4,4.8v139.4c0,2.7-1.1,4.8-2.4,4.8h-18.2
			c-1.3,0-2.4-2.1-2.4-4.8V6.3C193.5,3.6,194.6,1.5,195.9,1.5z"/>
		<path fill="#FFFFFF" stroke="#000000" d="M219.9,1.5h18.2c1.3,0,2.4,2.1,2.4,4.8v139.4c0,2.7-1.1,4.8-2.4,4.8h-18.2
			c-1.3,0-2.4-2.1-2.4-4.8V6.3C217.5,3.6,218.6,1.5,219.9,1.5z"/>
		<path fill="#FFFFFF" stroke="#000000" d="M243.9,1.5h18.2c1.3,0,2.4,2.1,2.4,4.8v139.4c0,2.7-1.1,4.8-2.4,4.8h-18.2
			c-1.3,0-2.4-2.1-2.4-4.8V6.3C241.5,3.6,242.6,1.5,243.9,1.5L243.9,1.5z"/>
		<path fill="#FFFFFF" stroke="#000000" d="M267.9,1.5h18.2c1.3,0,2.4,2.1,2.4,4.8v139.4c0,2.7-1.1,4.8-2.4,4.8h-18.2
			c-1.3,0-2.4-2.1-2.4-4.8V6.3C265.5,3.6,266.6,1.5,267.9,1.5z"/>
		<path fill="#FFFFFF" stroke="#000000" d="M291.9,1.5h18.2c1.3,0,2.4,2.1,2.4,4.8v139.4c0,2.7-1.1,4.8-2.4,4.8h-18.2
			c-1.3,0-2.4-2.1-2.4-4.8V6.3C289.5,3.6,290.6,1.5,291.9,1.5z"/>
		<path fill="#FFFFFF" stroke="#000000" d="M315.9,1.5h18.2c1.3,0,2.4,2.1,2.4,4.8v139.4c0,2.7-1.1,4.8-2.4,4.8h-18.2
			c-1.3,0-2.4-2.1-2.4-4.8V6.3C313.5,3.6,314.6,1.5,315.9,1.5z"/>
		<path fill="#FFFFFF" stroke="#000000" d="M339.9,1.5h18.2c1.3,0,2.4,2.1,2.4,4.8v139.4c0,2.7-1.1,4.8-2.4,4.8h-18.2
			c-1.3,0-2.4-2.1-2.4-4.8V6.3C337.5,3.6,338.6,1.5,339.9,1.5z"/>
		<path fill="#FFFFFF" stroke="#000000" d="M363.9,1.5h18.2c1.3,0,2.4,2.1,2.4,4.8v139.4c0,2.7-1.1,4.8-2.4,4.8h-18.2
			c-1.3,0-2.4-2.1-2.4-4.8V6.3C361.5,3.6,362.6,1.5,363.9,1.5z"/>
		<path fill="#FFFFFF" stroke="#000000" d="M387.9,1.5h18.2c1.3,0,2.4,2.1,2.4,4.8v139.4c0,2.7-1.1,4.8-2.4,4.8h-18.2
			c-1.3,0-2.4-2.1-2.4-4.8V6.3C385.5,3.6,386.6,1.5,387.9,1.5z"/>
		<path fill="#FFFFFF" stroke="#000000" d="M411.9,1.5h18.2c1.3,0,2.4,2.1,2.4,4.8v139.4c0,2.7-1.1,4.8-2.4,4.8h-18.2
			c-1.3,0-2.4-2.1-2.4-4.8V6.3C409.5,3.6,410.6,1.5,411.9,1.5z"/>
		<path fill="#FFFFFF" stroke="#000000" d="M435.9,1.5h18.2c1.3,0,2.4,2.1,2.4,4.8v139.4c0,2.7-1.1,4.8-2.4,4.8h-18.2
			c-1.3,0-2.4-2.1-2.4-4.8V6.3C433.5,3.6,434.6,1.5,435.9,1.5z"/>
		<path fill="#FFFFFF" stroke="#000000" d="M459.9,1.5h18.2c1.3,0,2.4,2.1,2.4,4.8v139.4c0,2.7-1.1,4.8-2.4,4.8h-18.2
			c-1.3,0-2.4-2.1-2.4-4.8V6.3C457.5,3.6,458.6,1.5,459.9,1.5z"/>
		<path fill="#FFFFFF" stroke="#000000" d="M483.9,1.5h18.2c1.3,0,2.4,2.1,2.4,4.8v139.4c0,2.7-1.1,4.8-2.4,4.8h-18.2
			c-1.3,0-2.4-2.1-2.4-4.8V6.3C481.5,3.6,482.6,1.5,483.9,1.5z"/>
		<path fill="#FFFFFF" stroke="#000000" d="M507.9,1.5h18.2c1.3,0,2.4,2.1,2.4,4.8v139.4c0,2.7-1.1,4.8-2.4,4.8h-18.2
			c-1.3,0-2.4-2.1-2.4-4.8V6.3C505.5,3.6,506.6,1.5,507.9,1.5L507.9,1.5z"/>
		<path fill="#FFFFFF" stroke="#000000" d="M531.9,1.5h18.2c1.3,0,2.4,2.1,2.4,4.8v139.4c0,2.7-1.1,4.8-2.4,4.8h-18.2
			c-1.3,0-2.4-2.1-2.4-4.8V6.3C529.5,3.6,530.6,1.5,531.9,1.5z"/>
		<path fill="#FFFFFF" stroke="#000000" d="M555.9,1.5h18.2c1.3,0,2.4,2.1,2.4,4.8v139.4c0,2.7-1.1,4.8-2.4,4.8h-18.2
			c-1.3,0-2.4-2.1-2.4-4.8V6.3C553.5,3.6,554.6,1.5,555.9,1.5z"/>
		<path fill="#FFFFFF" stroke="#000000" d="M579.9,1.5h18.2c1.3,0,2.4,2.1,2.4,4.8v139.4c0,2.7-1.1,4.8-2.4,4.8h-18.2
			c-1.3,0-2.4-2.1-2.4-4.8V6.3C577.5,3.6,578.6,1.5,579.9,1.5z"/>
		<path fill="#FFFFFF" stroke="#000000" d="M603.9,1.5h18.2c1.3,0,2.4,2.1,2.4,4.8v139.4c0,2.7-1.1,4.8-2.4,4.8h-18.2
			c-1.3,0-2.4-2.1-2.4-4.8V6.3C601.5,3.6,602.6,1.5,603.9,1.5z"/>
		<path fill="#FFFFFF" stroke="#000000" d="M627.9,1.5h18.2c1.3,0,2.4,2.1,2.4,4.8v139.4c0,2.7-1.1,4.8-2.4,4.8h-18.2
			c-1.3,0-2.4-2.1-2.4-4.8V6.3C625.5,3.6,626.6,1.5,627.9,1.5z"/>
		<path fill="#FFFFFF" stroke="#000000" d="M651.9,1.5h18.2c1.3,0,2.4,2.1,2.4,4.8v139.4c0,2.7-1.1,4.8-2.4,4.8h-18.2
			c-1.3,0-2.4-2.1-2.4-4.8V6.3C649.5,3.6,650.6,1.5,651.9,1.5z"/>
		<path fill="#FFFFFF" stroke="#000000" d="M675.9,1.5h18.2c1.3,0,2.4,2.1,2.4,4.8v139.4c0,2.7-1.1,4.8-2.4,4.8h-18.2
			c-1.3,0-2.4-2.1-2.4-4.8V6.3C673.5,3.6,674.6,1.5,675.9,1.5z"/>
		<path fill="#FFFFFF" stroke="#000000" d="M699.9,1.5h18.2c1.3,0,2.4,2.1,2.4,4.8v139.4c0,2.7-1.1,4.8-2.4,4.8h-18.2
			c-1.3,0-2.4-2.1-2.4-4.8V6.3C697.5,3.6,698.6,1.5,699.9,1.5z"/>
		<path fill="#FFFFFF" stroke="#000000" d="M723.9,1.5h18.2c1.3,0,2.4,2.1,2.4,4.8v139.4c0,2.7-1.1,4.8-2.4,4.8h-18.2
			c-1.3,0-2.4-2.1-2.4-4.8V6.3C721.5,3.6,722.6,1.5,723.9,1.5z"/>
		<path fill="#FFFFFF" stroke="#000000" d="M747.9,1.5h18.2c1.3,0,2.4,2.1,2.4,4.8v139.4c0,2.7-1.1,4.8-2.4,4.8h-18.2
			c-1.3,0-2.4-2.1-2.4-4.8V6.3C745.5,3.6,746.6,1.5,747.9,1.5z"/>
		<path fill="#FFFFFF" stroke="#000000" d="M771.9,1.5h18.2c1.3,0,2.4,2.1,2.4,4.8v139.4c0,2.7-1.1,4.8-2.4,4.8h-18.2
			c-1.3,0-2.4-2.1-2.4-4.8V6.3C769.5,3.6,770.6,1.5,771.9,1.5z"/>
		<path fill="#FFFFFF" stroke="#000000" d="M795.9,1.5h18.2c1.3,0,2.4,2.1,2.4,4.8v139.4c0,2.7-1.1,4.8-2.4,4.8h-18.2
			c-1.3,0-2.4-2.1-2.4-4.8V6.3C793.5,3.6,794.6,1.5,795.9,1.5z"/>
		<path fill="#FFFFFF" stroke="#000000" d="M819.9,1.5h18.2c1.3,0,2.4,2.1,2.4,4.8v139.4c0,2.7-1.1,4.8-2.4,4.8h-18.2
			c-1.3,0-2.4-2.1-2.4-4.8V6.3C817.5,3.6,818.6,1.5,819.9,1.5z"/>
		<path fill="#FFFFFF" stroke="#000000" d="M843.9,1.5h18.2c1.3,0,2.4,2.1,2.4,4.8v139.4c0,2.7-1.1,4.8-2.4,4.8h-18.2
			c-1.3,0-2.4-2.1-2.4-4.8V6.3C841.5,3.6,842.6,1.5,843.9,1.5z"/>
		<path fill="#FFFFFF" stroke="#000000" d="M867.9,1.5h18.2c1.3,0,2.4,2.1,2.4,4.8v139.4c0,2.7-1.1,4.8-2.4,4.8h-18.2
			c-1.3,0-2.4-2.1-2.4-4.8V6.3C865.5,3.6,866.6,1.5,867.9,1.5z"/>
		<path fill="#FFFFFF" stroke="#000000" d="M891.9,1.5h18.2c1.3,0,2.4,2.1,2.4,4.8v139.4c0,2.7-1.1,4.8-2.4,4.8h-18.2
			c-1.3,0-2.4-2.1-2.4-4.8V6.3C889.5,3.6,890.6,1.5,891.9,1.5z"/>
		<path fill="#FFFFFF" stroke="#000000" d="M915.9,1.5h18.2c1.3,0,2.4,2.1,2.4,4.8v139.4c0,2.7-1.1,4.8-2.4,4.8h-18.2
			c-1.3,0-2.4-2.1-2.4-4.8V6.3C913.5,3.6,914.6,1.5,915.9,1.5z"/>
		<path fill="#FFFFFF" stroke="#000000" d="M939.9,1.5h18.2c1.3,0,2.4,2.1,2.4,4.8v139.4c0,2.7-1.1,4.8-2.4,4.8h-18.2
			c-1.3,0-2.4-2.1-2.4-4.8V6.3C937.5,3.6,938.6,1.5,939.9,1.5z"/>
		<path fill="#FFFFFF" stroke="#000000" d="M963.9,1.5h18.2c1.3,0,2.4,2.1,2.4,4.8v139.4c0,2.7-1.1,4.8-2.4,4.8h-18.2
			c-1.3,0-2.4-2.1-2.4-4.8V6.3C961.5,3.6,962.6,1.5,963.9,1.5z"/>
		<path fill="#FFFFFF" stroke="#000000" d="M987.9,1.5h18.2c1.3,0,2.4,2.1,2.4,4.8v139.4c0,2.7-1.1,4.8-2.4,4.8h-18.2
			c-1.3,0-2.4-2.1-2.4-4.8V6.3C985.5,3.6,986.6,1.5,987.9,1.5z"/>
		<path fill="#FFFFFF" stroke="#000000" d="M1011.9,1.5h18.2c1.3,0,2.4,2.1,2.4,4.8v139.4c0,2.7-1.1,4.8-2.4,4.8h-18.2
			c-1.3,0-2.4-2.1-2.4-4.8V6.3C1009.5,3.6,1010.6,1.5,1011.9,1.5L1011.9,1.5z"/>
		<path fill="#FFFFFF" stroke="#000000" d="M1035.9,1.5h18.2c1.3,0,2.4,2.1,2.4,4.8v139.4c0,2.7-1.1,4.8-2.4,4.8h-18.2
			c-1.3,0-2.4-2.1-2.4-4.8V6.3C1033.5,3.6,1034.6,1.5,1035.9,1.5z"/>
		<path fill="#FFFFFF" stroke="#000000" d="M1059.9,1.5h18.2c1.3,0,2.4,2.1,2.4,4.8v139.4c0,2.7-1.1,4.8-2.4,4.8h-18.2
			c-1.3,0-2.4-2.1-2.4-4.8V6.3C1057.5,3.6,1058.6,1.5,1059.9,1.5z"/>
		<path fill="#FFFFFF" stroke="#000000" d="M1083.9,1.5h18.2c1.3,0,2.4,2.1,2.4,4.8v139.4c0,2.7-1.1,4.8-2.4,4.8h-18.2
			c-1.3,0-2.4-2.1-2.4-4.8V6.3C1081.5,3.6,1082.6,1.5,1083.9,1.5z"/>
		<path fill="#FFFFFF" stroke="#000000" d="M1107.9,1.5h18.2c1.3,0,2.4,2.1,2.4,4.8v139.4c0,2.7-1.1,4.8-2.4,4.8h-18.2
			c-1.3,0-2.4-2.1-2.4-4.8V6.3C1105.5,3.6,1106.6,1.5,1107.9,1.5z"/>
		<path fill="#FFFFFF" stroke="#000000" d="M1131.9,1.5h18.2c1.3,0,2.4,2.1,2.4,4.8v139.4c0,2.7-1.1,4.8-2.4,4.8h-18.2
			c-1.3,0-2.4-2.1-2.4-4.8V6.3C1129.5,3.6,1130.6,1.5,1131.9,1.5z"/>
		<path fill="#FFFFFF" stroke="#000000" d="M1155.9,1.5h18.2c1.3,0,2.4,2.1,2.4,4.8v139.4c0,2.7-1.1,4.8-2.4,4.8h-18.2
			c-1.3,0-2.4-2.1-2.4-4.8V6.3C1153.5,3.6,1154.6,1.5,1155.9,1.5z"/>
		<path fill="#FFFFFF" stroke="#000000" d="M1179.9,1.5h18.2c1.3,0,2.4,2.1,2.4,4.8v139.4c0,2.7-1.1,4.8-2.4,4.8h-18.2
			c-1.3,0-2.4-2.1-2.4-4.8V6.3C1177.5,3.6,1178.6,1.5,1179.9,1.5z"/>
		<path fill="#FFFFFF" stroke="#000000" d="M1203.9,1.5h18.2c1.3,0,2.4,2.1,2.4,4.8v139.4c0,2.7-1.1,4.8-2.4,4.8h-18.2
			c-1.3,0-2.4-2.1-2.4-4.8V6.3C1201.5,3.6,1202.6,1.5,1203.9,1.5z"/>
		<path fill="#FFFFFF" stroke="#000000" d="M1227.9,1.5h18.2c1.3,0,2.4,2.1,2.4,4.8v139.4c0,2.7-1.1,4.8-2.4,4.8h-18.2
			c-1.3,0-2.4-2.1-2.4-4.8V6.3C1225.5,3.6,1226.6,1.5,1227.9,1.5z"/>
		<circle fill="#FFFFFF" fill-opacity="0.5" stroke="#000000" cx="565" cy="139" r="4"/>
	</g>
	<g>
		<path stroke="#000000" stroke-width="1.46" d="M21.8,1.8h7c0.6,0,1,0.4,1,1v97c0,0.6-0.4,1-1,1h-7c-0.6,0-1-0.4-1-1v-97
			C20.8,2.2,21.2,1.8,21.8,1.8z"/>
		<path stroke="#000000" stroke-width="1.46" d="M69.8,1.8h7c0.6,0,1,0.4,1,1v97c0,0.6-0.4,1-1,1h-7c-0.6,0-1-0.4-1-1v-97
			C68.8,2.2,69.2,1.8,69.8,1.8z"/>
		<path stroke="#000000" stroke-width="1.46" d="M93.8,1.8h7c0.6,0,1,0.4,1,1v97c0,0.6-0.4,1-1,1h-7c-0.6,0-1-0.4-1-1v-97
			C92.8,2.2,93.2,1.8,93.8,1.8z"/>
		<path stroke="#000000" stroke-width="1.46" d="M141.8,1.8h7c0.6,0,1,0.4,1,1v97c0,0.6-0.4,1-1,1h-7c-0.6,0-1-0.4-1-1v-97
			C140.8,2.2,141.2,1.8,141.8,1.8z"/>
		<path stroke="#000000" stroke-width="1.46" d="M165.8,1.8h7c0.6,0,1,0.4,1,1v97c0,0.6-0.4,1-1,1h-7c-0.6,0-1-0.4-1-1v-97
			C164.8,2.2,165.2,1.8,165.8,1.8z"/>
		<path stroke="#000000" stroke-width="1.46" d="M189.8,1.8h7c0.6,0,1,0.4,1,1v97c0,0.6-0.4,1-1,1h-7c-0.6,0-1-0.4-1-1v-97
			C188.8,2.2,189.2,1.8,189.8,1.8z"/>
		<path stroke="#000000" stroke-width="1.46" d="M237.8,1.8h7c0.6,0,1,0.4,1,1v97c0,0.6-0.4,1-1,1h-7c-0.6,0-1-0.4-1-1v-97
			C236.8,2.2,237.2,1.8,237.8,1.8z"/>
		<path stroke="#000000" stroke-width="1.46" d="M261.8,1.8h7c0.6,0,1,0.4,1,1v97c0,0.6-0.4,1-1,1h-7c-0.6,0-1-0.4-1-1v-97
			C260.8,2.2,261.2,1.8,261.8,1.8z"/>
		<path stroke="#000000" stroke-width="1.46" d="M309.8,1.8h7c0.6,0,1,0.4,1,1v97c0,0.6-0.4,1-1,1h-7c-0.6,0-1-0.4-1-1v-97
			C308.8,2.2,309.2,1.8,309.8,1.8z"/>
		<path stroke="#000000" stroke-width="1.46" d="M333.8,1.8h7c0.6,0,1,0.4,1,1v97c0,0.6-0.4,1-1,1h-7c-0.6,0-1-0.4-1-1v-97
			C332.8,2.2,333.2,1.8,333.8,1.8z"/>
		<path stroke="#000000" stroke-width="1.46" d="M357.8,1.8h7c0.6,0,1,0.4,1,1v97c0,0.6-0.4,1-1,1h-7c-0.6,0-1-0.4-1-1v-97
			C356.8,2.2,357.2,1.8,357.8,1.8z"/>
		<path stroke="#000000" stroke-width="1.46" d="M405.8,1.8h7c0.6,0,1,0.4,1,1v97c0,0.6-0.4,1-1,1h-7c-0.6,0-1-0.4-1-1v-97
			C404.8,2.2,405.2,1.8,405.8,1.8z"/>
		<path stroke="#000000" stroke-width="1.46" d="M429.8,1.8h7c0.6,0,1,0.4,1,1v97c0,0.6-0.4,1-1,1h-7c-0.6,0-1-0.4-1-1v-97
			C428.8,2.2,429.2,1.8,429.8,1.8z"/>
		<path stroke="#000000" stroke-width="1.46" d="M477.8,1.8h7c0.6,0,1,0.4,1,1v97c0,0.6-0.4,1-1,1h-7c-0.6,0-1-0.4-1-1v-97
			C476.8,2.2,477.2,1.8,477.8,1.8z"/>
		<path stroke="#000000" stroke-width="1.46" d="M501.8,1.8h7c0.6,0,1,0.4,1,1v97c0,0.6-0.4,1-1,1h-7c-0.6,0-1-0.4-1-1v-97
			C500.8,2.2,501.2,1.8,501.8,1.8z"/>
		<path stroke="#000000" stroke-width="1.46" d="M525.8,1.8h7c0.6,0,1,0.4,1,1v97c0,0.6-0.4,1-1,1h-7c-0.6,0-1-0.4-1-1v-97
			C524.8,2.2,525.2,1.8,525.8,1.8z"/>
		<path stroke="#000000" stroke-width="1.46" d="M573.8,1.8h7c0.6,0,1,0.4,1,1v97c0,0.6-0.4,1-1,1h-7c-0.6,0-1-0.4-1-1v-97
			C572.8,2.2,573.2,1.8,573.8,1.8z"/>
		<path stroke="#000000" stroke-width="1.46" d="M597.8,1.8h7c0.6,0,1,0.4,1,1v97c0,0.6-0.4,1-1,1h-7c-0.6,0-1-0.4-1-1v-97
			C596.8,2.2,597.2,1.8,597.8,1.8z"/>
		<path stroke="#000000" stroke-width="1.46" d="M645.8,1.8h7c0.6,0,1,0.4,1,1v97c0,0.6-0.4,1-1,1h-7c-0.6,0-1-0.4-1-1v-97
			C644.8,2.2,645.2,1.8,645.8,1.8z"/>
		<path stroke="#000000" stroke-width="1.46" d="M669.8,1.8h7c0.6,0,1,0.4,1,1v97c0,0.6-0.4,1-1,1h-7c-0.6,0-1-0.4-1-1v-97
			C668.8,2.2,669.2,1.8,669.8,1.8z"/>
		<path stroke="#000000" stroke-width="1.46" d="M693.8,1.8h7c0.6,0,1,0.4,1,1v97c0,0.6-0.4,1-1,1h-7c-0.6,0-1-0.4-1-1v-97
			C692.8,2.2,693.2,1.8,693.8,1.8z"/>
		<path stroke="#000000" stroke-width="1.46" d="M741.8,1.8h7c0.6,0,1,0.4,1,1v97c0,0.6-0.4,1-1,1h-7c-0.6,0-1-0.4-1-1v-97
			C740.8,2.2,741.2,1.8,741.8,1.8z"/>
		<path stroke="#000000" stroke-width="1.46" d="M765.8,1.8h7c0.6,0,1,0.4,1,1v97c0,0.6-0.4,1-1,1h-7c-0.6,0-1-0.4-1-1v-97
			C764.8,2.2,765.2,1.8,765.8,1.8z"/>
		<path stroke="#000000" stroke-width="1.46" d="M813.8,1.8h7c0.6,0,1,0.4,1,1v97c0,0.6-0.4,1-1,1h-7c-0.6,0-1-0.4-1-1v-97
			C812.8,2.2,813.2,1.8,813.8,1.8z"/>
		<path stroke="#000000" stroke-width="1.46" d="M837.8,1.8h7c0.6,0,1,0.4,1,1v97c0,0.6-0.4,1-1,1h-7c-0.6,0-1-0.4-1-1v-97
			C836.8,2.2,837.2,1.8,837.8,1.8z"/>
		<path stroke="#000000" stroke-width="1.46" d="M861.8,1.8h7c0.6,0,1,0.4,1,1v97c0,0.6-0.4,1-1,1h-7c-0.6,0-1-0.4-1-1v-97
			C860.8,2.2,861.2,1.8,861.8,1.8z"/>
		<path stroke="#000000" stroke-width="1.46" d="M909.8,1.8h7c0.6,0,1,0.4,1,1v97c0,0.6-0.4,1-1,1h-7c-0.6,0-1-0.4-1-1v-97
			C908.8,2.2,909.2,1.8,909.8,1.8z"/>
		<path stroke="#000000" stroke-width="1.46" d="M933.8,1.8h7c0.6,0,1,0.4,1,1v97c0,0.6-0.4,1-1,1h-7c-0.6,0-1-0.4-1-1v-97
			C932.8,2.2,933.2,1.8,933.8,1.8z"/>
		<path stroke="#000000" stroke-width="1.46" d="M981.8,1.8h7c0.6,0,1,0.4,1,1v97c0,0.6-0.4,1-1,1h-7c-0.6,0-1-0.4-1-1v-97
			C980.8,2.2,981.2,1.8,981.8,1.8z"/>
		<path stroke="#000000" stroke-width="1.46" d="M1005.8,1.8h7c0.6,0,1,0.4,1,1v97c0,0.6-0.4,1-1,1h-7c-0.6,0-1-0.4-1-1v-97
			C1004.8,2.2,1005.2,1.8,1005.8,1.8z"/>
		<path stroke="#000000" stroke-width="1.46" d="M1029.8,1.8h7c0.6,0,1,0.4,1,1v97c0,0.6-0.4,1-1,1h-7c-0.6,0-1-0.4-1-1v-97
			C1028.8,2.2,1029.2,1.8,1029.8,1.8z"/>
		<path stroke="#000000" stroke-width="1.46" d="M1077.8,1.8h7c0.6,0,1,0.4,1,1v97c0,0.6-0.4,1-1,1h-7c-0.6,0-1-0.4-1-1v-97
			C1076.8,2.2,1077.2,1.8,1077.8,1.8z"/>
		<path stroke="#000000" stroke-width="1.46" d="M1101.8,1.8h7c0.6,0,1,0.4,1,1v97c0,0.6-0.4,1-1,1h-7c-0.6,0-1-0.4-1-1v-97
			C1100.8,2.2,1101.2,1.8,1101.8,1.8z"/>
		<path stroke="#000000" stroke-width="1.46" d="M1149.8,1.8h7c0.6,0,1,0.4,1,1v97c0,0.6-0.4,1-1,1h-7c-0.6,0-1-0.4-1-1v-97
			C1148.8,2.2,1149.2,1.8,1149.8,1.8z"/>
		<path stroke="#000000" stroke-width="1.46" d="M1173.8,1.8h7c0.6,0,1,0.4,1,1v97c0,0.6-0.4,1-1,1h-7c-0.6,0-1-0.4-1-1v-97
			C1172.8,2.2,1173.2,1.8,1173.8,1.8z"/>
		<path stroke="#000000" stroke-width="1.46" d="M1197.8,1.8h7c0.6,0,1,0.4,1,1v97c0,0.6-0.4,1-1,1h-7c-0.6,0-1-0.4-1-1v-97
			C1196.8,2.2,1197.2,1.8,1197.8,1.8z"/>
	</g>
</g>
</svg>
