<svg enable-background="new 0 0 1250 152" height="152" viewBox="0 0 1250 152" width="1250" xmlns="http://www.w3.org/2000/svg"><g stroke="#000"><g fill="#fff"><path d="m3.9 1.5h18.2c1.3 0 2.4 2.1 2.4 4.8v139.4c0 2.7-1.1 4.8-2.4 4.8h-18.2c-1.3 0-2.4-2.1-2.4-4.8v-139.4c0-2.7 1.1-4.8 2.4-4.8z"/><path d="m27.9 1.5h18.2c1.3 0 2.4 2.1 2.4 4.8v139.4c0 2.7-1.1 4.8-2.4 4.8h-18.2c-1.3 0-2.4-2.1-2.4-4.8v-139.4c0-2.7 1.1-4.8 2.4-4.8z"/><path d="m51.9 1.5h18.2c1.3 0 2.4 2.1 2.4 4.8v139.4c0 2.7-1.1 4.8-2.4 4.8h-18.2c-1.3 0-2.4-2.1-2.4-4.8v-139.4c0-2.7 1.1-4.8 2.4-4.8z"/><path d="m75.9 1.5h18.2c1.3 0 2.4 2.1 2.4 4.8v139.4c0 2.7-1.1 4.8-2.4 4.8h-18.2c-1.3 0-2.4-2.1-2.4-4.8v-139.4c0-2.7 1.1-4.8 2.4-4.8z"/><path d="m99.9 1.5h18.2c1.3 0 2.4 2.1 2.4 4.8v139.4c0 2.7-1.1 4.8-2.4 4.8h-18.2c-1.3 0-2.4-2.1-2.4-4.8v-139.4c0-2.7 1.1-4.8 2.4-4.8z"/><path d="m123.9 1.5h18.2c1.3 0 2.4 2.1 2.4 4.8v139.4c0 2.7-1.1 4.8-2.4 4.8h-18.2c-1.3 0-2.4-2.1-2.4-4.8v-139.4c0-2.7 1.1-4.8 2.4-4.8z"/><path d="m147.9 1.5h18.2c1.3 0 2.4 2.1 2.4 4.8v139.4c0 2.7-1.1 4.8-2.4 4.8h-18.2c-1.3 0-2.4-2.1-2.4-4.8v-139.4c0-2.7 1.1-4.8 2.4-4.8z"/><path d="m171.9 1.5h18.2c1.3 0 2.4 2.1 2.4 4.8v139.4c0 2.7-1.1 4.8-2.4 4.8h-18.2c-1.3 0-2.4-2.1-2.4-4.8v-139.4c0-2.7 1.1-4.8 2.4-4.8z"/><path d="m195.9 1.5h18.2c1.3 0 2.4 2.1 2.4 4.8v139.4c0 2.7-1.1 4.8-2.4 4.8h-18.2c-1.3 0-2.4-2.1-2.4-4.8v-139.4c0-2.7 1.1-4.8 2.4-4.8z"/><path d="m219.9 1.5h18.2c1.3 0 2.4 2.1 2.4 4.8v139.4c0 2.7-1.1 4.8-2.4 4.8h-18.2c-1.3 0-2.4-2.1-2.4-4.8v-139.4c0-2.7 1.1-4.8 2.4-4.8z"/><path d="m243.9 1.5h18.2c1.3 0 2.4 2.1 2.4 4.8v139.4c0 2.7-1.1 4.8-2.4 4.8h-18.2c-1.3 0-2.4-2.1-2.4-4.8v-139.4c0-2.7 1.1-4.8 2.4-4.8z"/><path d="m267.9 1.5h18.2c1.3 0 2.4 2.1 2.4 4.8v139.4c0 2.7-1.1 4.8-2.4 4.8h-18.2c-1.3 0-2.4-2.1-2.4-4.8v-139.4c0-2.7 1.1-4.8 2.4-4.8z"/><path d="m291.9 1.5h18.2c1.3 0 2.4 2.1 2.4 4.8v139.4c0 2.7-1.1 4.8-2.4 4.8h-18.2c-1.3 0-2.4-2.1-2.4-4.8v-139.4c0-2.7 1.1-4.8 2.4-4.8z"/><path d="m315.9 1.5h18.2c1.3 0 2.4 2.1 2.4 4.8v139.4c0 2.7-1.1 4.8-2.4 4.8h-18.2c-1.3 0-2.4-2.1-2.4-4.8v-139.4c0-2.7 1.1-4.8 2.4-4.8z"/><path d="m339.9 1.5h18.2c1.3 0 2.4 2.1 2.4 4.8v139.4c0 2.7-1.1 4.8-2.4 4.8h-18.2c-1.3 0-2.4-2.1-2.4-4.8v-139.4c0-2.7 1.1-4.8 2.4-4.8z"/><path d="m363.9 1.5h18.2c1.3 0 2.4 2.1 2.4 4.8v139.4c0 2.7-1.1 4.8-2.4 4.8h-18.2c-1.3 0-2.4-2.1-2.4-4.8v-139.4c0-2.7 1.1-4.8 2.4-4.8z"/><path d="m387.9 1.5h18.2c1.3 0 2.4 2.1 2.4 4.8v139.4c0 2.7-1.1 4.8-2.4 4.8h-18.2c-1.3 0-2.4-2.1-2.4-4.8v-139.4c0-2.7 1.1-4.8 2.4-4.8z"/><path d="m411.9 1.5h18.2c1.3 0 2.4 2.1 2.4 4.8v139.4c0 2.7-1.1 4.8-2.4 4.8h-18.2c-1.3 0-2.4-2.1-2.4-4.8v-139.4c0-2.7 1.1-4.8 2.4-4.8z"/><path d="m435.9 1.5h18.2c1.3 0 2.4 2.1 2.4 4.8v139.4c0 2.7-1.1 4.8-2.4 4.8h-18.2c-1.3 0-2.4-2.1-2.4-4.8v-139.4c0-2.7 1.1-4.8 2.4-4.8z"/><path d="m459.9 1.5h18.2c1.3 0 2.4 2.1 2.4 4.8v139.4c0 2.7-1.1 4.8-2.4 4.8h-18.2c-1.3 0-2.4-2.1-2.4-4.8v-139.4c0-2.7 1.1-4.8 2.4-4.8z"/><path d="m483.9 1.5h18.2c1.3 0 2.4 2.1 2.4 4.8v139.4c0 2.7-1.1 4.8-2.4 4.8h-18.2c-1.3 0-2.4-2.1-2.4-4.8v-139.4c0-2.7 1.1-4.8 2.4-4.8z"/><path d="m507.9 1.5h18.2c1.3 0 2.4 2.1 2.4 4.8v139.4c0 2.7-1.1 4.8-2.4 4.8h-18.2c-1.3 0-2.4-2.1-2.4-4.8v-139.4c0-2.7 1.1-4.8 2.4-4.8z"/><path d="m531.9 1.5h18.2c1.3 0 2.4 2.1 2.4 4.8v139.4c0 2.7-1.1 4.8-2.4 4.8h-18.2c-1.3 0-2.4-2.1-2.4-4.8v-139.4c0-2.7 1.1-4.8 2.4-4.8z"/><path d="m555.9 1.5h18.2c1.3 0 2.4 2.1 2.4 4.8v139.4c0 2.7-1.1 4.8-2.4 4.8h-18.2c-1.3 0-2.4-2.1-2.4-4.8v-139.4c0-2.7 1.1-4.8 2.4-4.8z"/><path d="m579.9 1.5h18.2c1.3 0 2.4 2.1 2.4 4.8v139.4c0 2.7-1.1 4.8-2.4 4.8h-18.2c-1.3 0-2.4-2.1-2.4-4.8v-139.4c0-2.7 1.1-4.8 2.4-4.8z"/><path d="m603.9 1.5h18.2c1.3 0 2.4 2.1 2.4 4.8v139.4c0 2.7-1.1 4.8-2.4 4.8h-18.2c-1.3 0-2.4-2.1-2.4-4.8v-139.4c0-2.7 1.1-4.8 2.4-4.8z"/><path d="m627.9 1.5h18.2c1.3 0 2.4 2.1 2.4 4.8v139.4c0 2.7-1.1 4.8-2.4 4.8h-18.2c-1.3 0-2.4-2.1-2.4-4.8v-139.4c0-2.7 1.1-4.8 2.4-4.8z"/><path d="m651.9 1.5h18.2c1.3 0 2.4 2.1 2.4 4.8v139.4c0 2.7-1.1 4.8-2.4 4.8h-18.2c-1.3 0-2.4-2.1-2.4-4.8v-139.4c0-2.7 1.1-4.8 2.4-4.8z"/><path d="m675.9 1.5h18.2c1.3 0 2.4 2.1 2.4 4.8v139.4c0 2.7-1.1 4.8-2.4 4.8h-18.2c-1.3 0-2.4-2.1-2.4-4.8v-139.4c0-2.7 1.1-4.8 2.4-4.8z"/><path d="m699.9 1.5h18.2c1.3 0 2.4 2.1 2.4 4.8v139.4c0 2.7-1.1 4.8-2.4 4.8h-18.2c-1.3 0-2.4-2.1-2.4-4.8v-139.4c0-2.7 1.1-4.8 2.4-4.8z"/><path d="m723.9 1.5h18.2c1.3 0 2.4 2.1 2.4 4.8v139.4c0 2.7-1.1 4.8-2.4 4.8h-18.2c-1.3 0-2.4-2.1-2.4-4.8v-139.4c0-2.7 1.1-4.8 2.4-4.8z"/><path d="m747.9 1.5h18.2c1.3 0 2.4 2.1 2.4 4.8v139.4c0 2.7-1.1 4.8-2.4 4.8h-18.2c-1.3 0-2.4-2.1-2.4-4.8v-139.4c0-2.7 1.1-4.8 2.4-4.8z"/><path d="m771.9 1.5h18.2c1.3 0 2.4 2.1 2.4 4.8v139.4c0 2.7-1.1 4.8-2.4 4.8h-18.2c-1.3 0-2.4-2.1-2.4-4.8v-139.4c0-2.7 1.1-4.8 2.4-4.8z"/><path d="m795.9 1.5h18.2c1.3 0 2.4 2.1 2.4 4.8v139.4c0 2.7-1.1 4.8-2.4 4.8h-18.2c-1.3 0-2.4-2.1-2.4-4.8v-139.4c0-2.7 1.1-4.8 2.4-4.8z"/><path d="m819.9 1.5h18.2c1.3 0 2.4 2.1 2.4 4.8v139.4c0 2.7-1.1 4.8-2.4 4.8h-18.2c-1.3 0-2.4-2.1-2.4-4.8v-139.4c0-2.7 1.1-4.8 2.4-4.8z"/><path d="m843.9 1.5h18.2c1.3 0 2.4 2.1 2.4 4.8v139.4c0 2.7-1.1 4.8-2.4 4.8h-18.2c-1.3 0-2.4-2.1-2.4-4.8v-139.4c0-2.7 1.1-4.8 2.4-4.8z"/><path d="m867.9 1.5h18.2c1.3 0 2.4 2.1 2.4 4.8v139.4c0 2.7-1.1 4.8-2.4 4.8h-18.2c-1.3 0-2.4-2.1-2.4-4.8v-139.4c0-2.7 1.1-4.8 2.4-4.8z"/><path d="m891.9 1.5h18.2c1.3 0 2.4 2.1 2.4 4.8v139.4c0 2.7-1.1 4.8-2.4 4.8h-18.2c-1.3 0-2.4-2.1-2.4-4.8v-139.4c0-2.7 1.1-4.8 2.4-4.8z"/><path d="m915.9 1.5h18.2c1.3 0 2.4 2.1 2.4 4.8v139.4c0 2.7-1.1 4.8-2.4 4.8h-18.2c-1.3 0-2.4-2.1-2.4-4.8v-139.4c0-2.7 1.1-4.8 2.4-4.8z"/><path d="m939.9 1.5h18.2c1.3 0 2.4 2.1 2.4 4.8v139.4c0 2.7-1.1 4.8-2.4 4.8h-18.2c-1.3 0-2.4-2.1-2.4-4.8v-139.4c0-2.7 1.1-4.8 2.4-4.8z"/><path d="m963.9 1.5h18.2c1.3 0 2.4 2.1 2.4 4.8v139.4c0 2.7-1.1 4.8-2.4 4.8h-18.2c-1.3 0-2.4-2.1-2.4-4.8v-139.4c0-2.7 1.1-4.8 2.4-4.8z"/><path d="m987.9 1.5h18.2c1.3 0 2.4 2.1 2.4 4.8v139.4c0 2.7-1.1 4.8-2.4 4.8h-18.2c-1.3 0-2.4-2.1-2.4-4.8v-139.4c0-2.7 1.1-4.8 2.4-4.8z"/><path d="m1011.9 1.5h18.2c1.3 0 2.4 2.1 2.4 4.8v139.4c0 2.7-1.1 4.8-2.4 4.8h-18.2c-1.3 0-2.4-2.1-2.4-4.8v-139.4c0-2.7 1.1-4.8 2.4-4.8z"/><path d="m1035.9 1.5h18.2c1.3 0 2.4 2.1 2.4 4.8v139.4c0 2.7-1.1 4.8-2.4 4.8h-18.2c-1.3 0-2.4-2.1-2.4-4.8v-139.4c0-2.7 1.1-4.8 2.4-4.8z"/><path d="m1059.9 1.5h18.2c1.3 0 2.4 2.1 2.4 4.8v139.4c0 2.7-1.1 4.8-2.4 4.8h-18.2c-1.3 0-2.4-2.1-2.4-4.8v-139.4c0-2.7 1.1-4.8 2.4-4.8z"/><path d="m1083.9 1.5h18.2c1.3 0 2.4 2.1 2.4 4.8v139.4c0 2.7-1.1 4.8-2.4 4.8h-18.2c-1.3 0-2.4-2.1-2.4-4.8v-139.4c0-2.7 1.1-4.8 2.4-4.8z"/><path d="m1107.9 1.5h18.2c1.3 0 2.4 2.1 2.4 4.8v139.4c0 2.7-1.1 4.8-2.4 4.8h-18.2c-1.3 0-2.4-2.1-2.4-4.8v-139.4c0-2.7 1.1-4.8 2.4-4.8z"/><path d="m1131.9 1.5h18.2c1.3 0 2.4 2.1 2.4 4.8v139.4c0 2.7-1.1 4.8-2.4 4.8h-18.2c-1.3 0-2.4-2.1-2.4-4.8v-139.4c0-2.7 1.1-4.8 2.4-4.8z"/><path d="m1155.9 1.5h18.2c1.3 0 2.4 2.1 2.4 4.8v139.4c0 2.7-1.1 4.8-2.4 4.8h-18.2c-1.3 0-2.4-2.1-2.4-4.8v-139.4c0-2.7 1.1-4.8 2.4-4.8z"/><path d="m1179.9 1.5h18.2c1.3 0 2.4 2.1 2.4 4.8v139.4c0 2.7-1.1 4.8-2.4 4.8h-18.2c-1.3 0-2.4-2.1-2.4-4.8v-139.4c0-2.7 1.1-4.8 2.4-4.8z"/><path d="m1203.9 1.5h18.2c1.3 0 2.4 2.1 2.4 4.8v139.4c0 2.7-1.1 4.8-2.4 4.8h-18.2c-1.3 0-2.4-2.1-2.4-4.8v-139.4c0-2.7 1.1-4.8 2.4-4.8z"/><path d="m1227.9 1.5h18.2c1.3 0 2.4 2.1 2.4 4.8v139.4c0 2.7-1.1 4.8-2.4 4.8h-18.2c-1.3 0-2.4-2.1-2.4-4.8v-139.4c0-2.7 1.1-4.8 2.4-4.8z"/><circle cx="565" cy="139" fill-opacity=".5" r="4"/></g><g stroke-width="1.46"><path d="m21.8 1.8h7c.6 0 1 .4 1 1v97c0 .6-.4 1-1 1h-7c-.6 0-1-.4-1-1v-97c0-.6.4-1 1-1z"/><path d="m69.8 1.8h7c.6 0 1 .4 1 1v97c0 .6-.4 1-1 1h-7c-.6 0-1-.4-1-1v-97c0-.6.4-1 1-1z"/><path d="m93.8 1.8h7c.6 0 1 .4 1 1v97c0 .6-.4 1-1 1h-7c-.6 0-1-.4-1-1v-97c0-.6.4-1 1-1z"/><path d="m141.8 1.8h7c.6 0 1 .4 1 1v97c0 .6-.4 1-1 1h-7c-.6 0-1-.4-1-1v-97c0-.6.4-1 1-1z"/><path d="m165.8 1.8h7c.6 0 1 .4 1 1v97c0 .6-.4 1-1 1h-7c-.6 0-1-.4-1-1v-97c0-.6.4-1 1-1z"/><path d="m189.8 1.8h7c.6 0 1 .4 1 1v97c0 .6-.4 1-1 1h-7c-.6 0-1-.4-1-1v-97c0-.6.4-1 1-1z"/><path d="m237.8 1.8h7c.6 0 1 .4 1 1v97c0 .6-.4 1-1 1h-7c-.6 0-1-.4-1-1v-97c0-.6.4-1 1-1z"/><path d="m261.8 1.8h7c.6 0 1 .4 1 1v97c0 .6-.4 1-1 1h-7c-.6 0-1-.4-1-1v-97c0-.6.4-1 1-1z"/><path d="m309.8 1.8h7c.6 0 1 .4 1 1v97c0 .6-.4 1-1 1h-7c-.6 0-1-.4-1-1v-97c0-.6.4-1 1-1z"/><path d="m333.8 1.8h7c.6 0 1 .4 1 1v97c0 .6-.4 1-1 1h-7c-.6 0-1-.4-1-1v-97c0-.6.4-1 1-1z"/><path d="m357.8 1.8h7c.6 0 1 .4 1 1v97c0 .6-.4 1-1 1h-7c-.6 0-1-.4-1-1v-97c0-.6.4-1 1-1z"/><path d="m405.8 1.8h7c.6 0 1 .4 1 1v97c0 .6-.4 1-1 1h-7c-.6 0-1-.4-1-1v-97c0-.6.4-1 1-1z"/><path d="m429.8 1.8h7c.6 0 1 .4 1 1v97c0 .6-.4 1-1 1h-7c-.6 0-1-.4-1-1v-97c0-.6.4-1 1-1z"/><path d="m477.8 1.8h7c.6 0 1 .4 1 1v97c0 .6-.4 1-1 1h-7c-.6 0-1-.4-1-1v-97c0-.6.4-1 1-1z"/><path d="m501.8 1.8h7c.6 0 1 .4 1 1v97c0 .6-.4 1-1 1h-7c-.6 0-1-.4-1-1v-97c0-.6.4-1 1-1z"/><path d="m525.8 1.8h7c.6 0 1 .4 1 1v97c0 .6-.4 1-1 1h-7c-.6 0-1-.4-1-1v-97c0-.6.4-1 1-1z"/><path d="m573.8 1.8h7c.6 0 1 .4 1 1v97c0 .6-.4 1-1 1h-7c-.6 0-1-.4-1-1v-97c0-.6.4-1 1-1z"/><path d="m597.8 1.8h7c.6 0 1 .4 1 1v97c0 .6-.4 1-1 1h-7c-.6 0-1-.4-1-1v-97c0-.6.4-1 1-1z"/><path d="m645.8 1.8h7c.6 0 1 .4 1 1v97c0 .6-.4 1-1 1h-7c-.6 0-1-.4-1-1v-97c0-.6.4-1 1-1z"/><path d="m669.8 1.8h7c.6 0 1 .4 1 1v97c0 .6-.4 1-1 1h-7c-.6 0-1-.4-1-1v-97c0-.6.4-1 1-1z"/><path d="m693.8 1.8h7c.6 0 1 .4 1 1v97c0 .6-.4 1-1 1h-7c-.6 0-1-.4-1-1v-97c0-.6.4-1 1-1z"/><path d="m741.8 1.8h7c.6 0 1 .4 1 1v97c0 .6-.4 1-1 1h-7c-.6 0-1-.4-1-1v-97c0-.6.4-1 1-1z"/><path d="m765.8 1.8h7c.6 0 1 .4 1 1v97c0 .6-.4 1-1 1h-7c-.6 0-1-.4-1-1v-97c0-.6.4-1 1-1z"/><path d="m813.8 1.8h7c.6 0 1 .4 1 1v97c0 .6-.4 1-1 1h-7c-.6 0-1-.4-1-1v-97c0-.6.4-1 1-1z"/><path d="m837.8 1.8h7c.6 0 1 .4 1 1v97c0 .6-.4 1-1 1h-7c-.6 0-1-.4-1-1v-97c0-.6.4-1 1-1z"/><path d="m861.8 1.8h7c.6 0 1 .4 1 1v97c0 .6-.4 1-1 1h-7c-.6 0-1-.4-1-1v-97c0-.6.4-1 1-1z"/><path d="m909.8 1.8h7c.6 0 1 .4 1 1v97c0 .6-.4 1-1 1h-7c-.6 0-1-.4-1-1v-97c0-.6.4-1 1-1z"/><path d="m933.8 1.8h7c.6 0 1 .4 1 1v97c0 .6-.4 1-1 1h-7c-.6 0-1-.4-1-1v-97c0-.6.4-1 1-1z"/><path d="m981.8 1.8h7c.6 0 1 .4 1 1v97c0 .6-.4 1-1 1h-7c-.6 0-1-.4-1-1v-97c0-.6.4-1 1-1z"/><path d="m1005.8 1.8h7c.6 0 1 .4 1 1v97c0 .6-.4 1-1 1h-7c-.6 0-1-.4-1-1v-97c0-.6.4-1 1-1z"/><path d="m1029.8 1.8h7c.6 0 1 .4 1 1v97c0 .6-.4 1-1 1h-7c-.6 0-1-.4-1-1v-97c0-.6.4-1 1-1z"/><path d="m1077.8 1.8h7c.6 0 1 .4 1 1v97c0 .6-.4 1-1 1h-7c-.6 0-1-.4-1-1v-97c0-.6.4-1 1-1z"/><path d="m1101.8 1.8h7c.6 0 1 .4 1 1v97c0 .6-.4 1-1 1h-7c-.6 0-1-.4-1-1v-97c0-.6.4-1 1-1z"/><path d="m1149.8 1.8h7c.6 0 1 .4 1 1v97c0 .6-.4 1-1 1h-7c-.6 0-1-.4-1-1v-97c0-.6.4-1 1-1z"/><path d="m1173.8 1.8h7c.6 0 1 .4 1 1v97c0 .6-.4 1-1 1h-7c-.6 0-1-.4-1-1v-97c0-.6.4-1 1-1z"/><path d="m1197.8 1.8h7c.6 0 1 .4 1 1v97c0 .6-.4 1-1 1h-7c-.6 0-1-.4-1-1v-97c0-.6.4-1 1-1z"/></g></g></svg>