<?xml version="1.0" encoding="utf-8"?>
<!-- Generator: Adobe Illustrator 26.0.3, SVG Export Plug-In . SVG Version: 6.00 Build 0)  -->
<svg version="1.1" xmlns="http://www.w3.org/2000/svg" xmlns:xlink="http://www.w3.org/1999/xlink" x="0px" y="0px"
	 viewBox="0 0 714.3 510.2" style="enable-background:new 0 0 714.3 510.2;" xml:space="preserve">
<style type="text/css">
	.st0{fill:none;}
	.st1{fill:none;stroke:#000000;stroke-width:0.8;stroke-linejoin:round;stroke-miterlimit:10;}
	.st2{fill:none;stroke:#000000;stroke-width:1.4173;stroke-linejoin:round;stroke-miterlimit:10;}
	.st3{fill:none;stroke:#0099FF;stroke-width:2.8346;stroke-linejoin:round;stroke-miterlimit:10;}
	
		.st4{fill-rule:evenodd;clip-rule:evenodd;fill:#FFFFFF;stroke:#0099FF;stroke-width:0.8;stroke-linejoin:round;stroke-miterlimit:10;}
	
		.st5{fill-rule:evenodd;clip-rule:evenodd;fill:#0099FF;stroke:#0099FF;stroke-width:0.8;stroke-linejoin:round;stroke-miterlimit:10;}
	
		.st6{fill:none;stroke:#0099FF;stroke-width:1.4173;stroke-linejoin:round;stroke-miterlimit:10;stroke-dasharray:14.4,14.4,14.4,14.4;}
	.st7{fill:none;stroke:#000000;stroke-width:1.4173;stroke-linejoin:round;stroke-miterlimit:10;stroke-dasharray:1.4173,12.9543;}
	.st8{font-family:'MyriadPro-Regular';}
	.st9{font-size:33.6472px;}
</style>
<g id="Layer_2">
</g>
<g id="Layer_1">
	<g id="MasterSlide_1_Default">
		<desc>Master slide</desc>
		<rect x="-56.7" y="-39.7" class="st0" width="841.9" height="595.3"/>
	</g>
	<g id="Drawing_19">
		<g>
			<path id="Drawing_1_0" class="st1" d="M391.2,439.4H107.7V56.7h566.9v382.7H391.2z"/>
		</g>
		<g>
			<path id="Drawing_2_0" class="st2" d="M107.7,439.4v14.2"/>
		</g>
		<g>
			<path id="Drawing_3_0" class="st2" d="M107.7,439.4H93.5"/>
		</g>
		<g>
			<path id="Drawing_4_0" class="st2" d="M107.7,184.3H93.5"/>
		</g>
		<g>
			<path id="Drawing_5_0" class="st3" d="M107.7,439.4h170.1"/>
		</g>
		<g>
			<path id="Drawing_6_0" class="st4" d="M284.9,445c-1.3,0-2.4-0.3-3.5-0.9c-1.1-0.7-1.9-1.5-2.6-2.6c-0.7-1.1-0.9-2.2-0.9-3.5
				c0-1.3,0.3-2.4,0.9-3.5c0.7-1.1,1.5-1.9,2.6-2.6c1.1-0.7,2.2-0.9,3.5-0.9c1.3,0,2.4,0.3,3.5,0.9c1.1,0.7,1.9,1.5,2.6,2.6
				c0.7,1.1,0.9,2.2,0.9,3.5c0,1.3-0.3,2.4-0.9,3.5c-0.7,1.1-1.5,1.9-2.6,2.6C287.3,444.8,286.2,445,284.9,445L284.9,445z"/>
		</g>
		<g>
			<path id="Drawing_7_0" class="st4" d="M497.5,445c-1.3,0-2.4-0.3-3.5-0.9c-1.1-0.7-1.9-1.5-2.6-2.6c-0.7-1.1-0.9-2.2-0.9-3.5
				s0.3-2.4,0.9-3.5c0.7-1.1,1.5-1.9,2.6-2.6c1.1-0.7,2.2-0.9,3.5-0.9s2.4,0.3,3.5,0.9c1.1,0.7,1.9,1.5,2.6,2.6
				c0.7,1.1,0.9,2.2,0.9,3.5s-0.3,2.4-0.9,3.5c-0.7,1.1-1.5,1.9-2.6,2.6C499.9,444.7,498.8,445,497.5,445L497.5,445z"/>
		</g>
		<g>
			<path id="Drawing_8_0" class="st5" d="M284.9,189.9c-1.3,0-2.4-0.3-3.5-0.9c-1.1-0.7-1.9-1.5-2.6-2.6c-0.7-1.1-0.9-2.2-0.9-3.5
				c0-1.3,0.3-2.4,0.9-3.5c0.7-1.1,1.5-1.9,2.6-2.6c1.1-0.7,2.2-0.9,3.5-0.9c1.3,0,2.4,0.3,3.5,0.9c1.1,0.7,1.9,1.5,2.6,2.6
				c0.7,1.1,0.9,2.2,0.9,3.5c0,1.3-0.3,2.4-0.9,3.5c-0.7,1.1-1.5,1.9-2.6,2.6C287.3,189.6,286.2,189.9,284.9,189.9L284.9,189.9z"/>
		</g>
		<g>
			<path id="Drawing_9_0" class="st5" d="M497.5,189.9c-1.3,0-2.4-0.3-3.5-0.9c-1.1-0.7-1.9-1.5-2.6-2.6c-0.7-1.1-0.9-2.2-0.9-3.5
				c0-1.3,0.3-2.4,0.9-3.5c0.7-1.1,1.5-1.9,2.6-2.6c1.1-0.7,2.2-0.9,3.5-0.9s2.4,0.3,3.5,0.9c1.1,0.7,1.9,1.5,2.6,2.6
				c0.7,1.1,0.9,2.2,0.9,3.5c0,1.3-0.3,2.4-0.9,3.5c-0.7,1.1-1.5,1.9-2.6,2.6C499.9,189.6,498.8,189.9,497.5,189.9L497.5,189.9z"/>
		</g>
		<g>
			<path id="Drawing_10_0" class="st3" d="M292,184.3h198.4"/>
		</g>
		<g>
			<path id="Drawing_11_0" class="st3" d="M504.6,439.4h170.1"/>
		</g>
		<g>
			<path id="Drawing_12_0" class="st6" d="M286.3,189.9v240.9"/>
		</g>
		<g>
			<path id="Drawing_13_0" class="st6" d="M498.9,430.9V189.9"/>
		</g>
		<g>
			<path id="Drawing_14_0" class="st7" d="M107.7,184.3h170.1"/>
		</g>
	</g>
	<g>
		<text transform="matrix(1 0 0 1 273.5183 481.8433)" class="st8 st9">a</text>
	</g>
	<g>
		<text transform="matrix(1 0 0 1 488.9597 481.8433)" class="st8 st9">b</text>
	</g>
</g>
</svg>
